<svg width="56.956" height="76.95" viewBox="0 0 56.956 76.95" xmlns="http://www.w3.org/2000/svg"><g id="svgGroup" stroke-linecap="round" fill-rule="evenodd" font-size="9pt" stroke="#000" stroke-width="0.25mm" fill="#000" style="stroke:#000;stroke-width:0.25mm;fill:#000"><path d="M 15.333 45.238 L 15.033 46.038 A 257.596 257.596 0 0 1 22.608 41.117 A 279.682 279.682 0 0 1 22.733 41.038 A 119.964 119.964 0 0 0 28.396 37.28 A 104.001 104.001 0 0 0 30.183 35.988 A 46.573 46.573 0 0 0 34.054 32.806 A 38.076 38.076 0 0 0 36.183 30.688 A 17.247 17.247 0 0 0 38.211 28.055 A 13.008 13.008 0 0 0 39.633 24.938 Q 40.207 23.025 39.546 21.112 A 7.117 7.117 0 0 0 39.483 20.938 Q 38.733 18.938 36.883 17.188 A 15.218 15.218 0 0 0 34.539 15.386 A 20.441 20.441 0 0 0 32.233 14.138 A 21.424 21.424 0 0 0 27.797 12.661 A 25.47 25.47 0 0 0 26.033 12.338 Q 21.533 11.738 16.933 12.038 Q 17.333 15.038 17.083 18.088 Q 16.892 20.424 16.554 22.261 A 26.522 26.522 0 0 1 16.333 23.338 Q 15.033 28.738 13.033 34.488 A 195.681 195.681 0 0 1 10.494 41.383 A 164.401 164.401 0 0 1 8.933 45.238 Q 8.733 45.538 8.333 46.238 A 3.312 3.312 0 0 1 8.205 46.447 Q 7.884 46.922 7.633 46.838 A 0.176 0.176 0 0 1 7.557 46.756 Q 7.456 46.555 7.533 45.938 Q 7.633 45.138 7.633 44.838 Q 7.733 43.638 8.083 41.888 Q 8.433 40.138 8.783 38.238 A 54.467 54.467 0 0 1 9.472 35.028 A 49.272 49.272 0 0 1 9.583 34.588 A 88.894 88.894 0 0 1 9.914 33.339 Q 10.049 32.845 10.178 32.395 A 50.796 50.796 0 0 1 10.433 31.538 A 7.882 7.882 0 0 0 10.533 31.211 Q 10.732 30.512 11.083 28.988 A 81.642 81.642 0 0 0 11.428 27.42 Q 11.574 26.723 11.726 25.953 A 151.4 151.4 0 0 0 12.033 24.338 Q 12.533 21.638 13.033 18.538 Q 13.533 15.438 13.833 12.538 L 12.433 12.738 Q 12.133 16.538 11.233 20.438 Q 10.333 24.338 9.183 28.288 Q 8.033 32.238 6.783 36.288 A 114.157 114.157 0 0 0 4.747 43.75 A 104.811 104.811 0 0 0 4.633 44.238 A 68.528 68.528 0 0 0 3.501 50.593 A 75.538 75.538 0 0 0 3.383 51.538 Q 2.933 55.338 3.083 59.038 Q 3.233 62.738 3.983 66.188 A 20.739 20.739 0 0 0 5.712 71.136 A 18.844 18.844 0 0 0 6.433 72.438 A 2.575 2.575 0 0 1 6.472 72.542 Q 6.605 72.92 6.449 72.938 A 0.141 0.141 0 0 1 6.433 72.938 A 0.36 0.36 0 0 1 6.299 72.909 Q 6.183 72.862 6.043 72.741 A 2.098 2.098 0 0 1 5.933 72.638 Q 3.433 69.738 2.133 66.138 Q 0.833 62.538 0.483 58.588 Q 0.133 54.638 0.583 50.438 Q 1.033 46.238 1.933 42.238 Q 3.633 34.738 6.033 27.438 A 175.988 175.988 0 0 0 9.155 16.878 A 152.49 152.49 0 0 0 10.033 13.338 Q 7.533 13.938 5.133 14.788 Q 2.733 15.638 0.633 16.638 Q 0.167 16.825 0.049 16.751 A 0.087 0.087 0 0 1 0.033 16.738 Q -0.067 16.638 0.133 16.388 Q 0.278 16.208 0.423 16.105 A 0.851 0.851 0 0 1 0.533 16.038 Q 5.533 11.938 12.733 10.238 Q 19.933 8.538 27.433 9.338 A 21.551 21.551 0 0 1 33.13 10.852 A 19.809 19.809 0 0 1 34.583 11.538 A 19.482 19.482 0 0 1 37.876 13.688 A 16.091 16.091 0 0 1 39.933 15.688 Q 42.033 18.138 42.683 21.138 Q 43.333 24.138 42.033 27.138 Q 40.533 30.638 37.283 33.638 A 51.397 51.397 0 0 1 31.535 38.208 A 58.62 58.62 0 0 1 29.983 39.238 Q 25.933 41.838 21.433 44.038 Q 16.933 46.238 13.033 48.138 A 10.287 10.287 0 0 1 13.058 48.138 Q 14.25 48.141 15.496 48.421 A 13.253 13.253 0 0 1 16.333 48.638 Q 18.033 49.138 19.683 49.888 A 27.567 27.567 0 0 1 22.418 51.316 A 25.262 25.262 0 0 1 22.783 51.538 Q 23.991 52.288 24.817 53.038 A 8.993 8.993 0 0 1 25.133 53.338 Q 28.333 56.238 31.133 59.488 Q 33.933 62.738 36.533 66.238 Q 36.615 66.402 36.93 66.799 A 16.828 16.828 0 0 0 37.083 66.988 A 2.862 2.862 0 0 1 37.205 67.147 Q 37.46 67.508 37.373 67.684 A 0.205 0.205 0 0 1 37.333 67.738 Q 37.247 67.825 36.746 67.649 A 6.214 6.214 0 0 1 36.583 67.588 Q 35.945 67.343 35.741 67.146 A 0.585 0.585 0 0 1 35.733 67.138 A 18.07 18.07 0 0 1 35.098 66.721 Q 34.749 66.482 34.362 66.197 A 36.077 36.077 0 0 1 33.883 65.838 Q 32.833 65.038 31.683 64.138 Q 30.533 63.238 29.433 62.288 Q 28.591 61.561 27.983 60.922 A 12.628 12.628 0 0 1 27.633 60.538 A 16.529 16.529 0 0 1 27.397 60.345 Q 26.777 59.829 25.233 58.488 Q 23.333 56.838 20.933 54.938 Q 18.533 53.038 16.033 51.438 Q 13.533 49.838 11.933 49.438 Q 11.704 49.362 11.327 49.227 A 67.838 67.838 0 0 1 11.083 49.138 Q 10.56 48.948 10.625 48.487 A 0.846 0.846 0 0 1 10.633 48.438 Q 11.433 44.638 12.633 41.038 Q 13.833 37.438 14.933 33.638 Q 16.333 28.938 17.583 24.038 A 47.136 47.136 0 0 0 18.802 16.965 A 56.721 56.721 0 0 0 19.033 13.438 Q 19.033 13.01 19.107 12.949 A 0.041 0.041 0 0 1 19.133 12.938 A 0.289 0.289 0 0 1 19.334 13.027 Q 19.497 13.18 19.622 13.6 A 3.54 3.54 0 0 1 19.633 13.638 Q 20.833 16.338 20.633 20.638 Q 20.433 24.938 19.583 29.588 A 87.99 87.99 0 0 1 17.79 37.42 A 79.949 79.949 0 0 1 17.483 38.488 Q 16.416 42.116 15.605 44.468 A 61.78 61.78 0 0 1 15.333 45.238 Z M 50.674 33.664 A 26.279 26.279 0 0 0 52.833 28.338 A 15.452 15.452 0 0 0 53.106 27.123 Q 53.522 24.865 53.483 21.788 A 16.622 16.622 0 0 0 52.852 17.521 A 21.787 21.787 0 0 0 51.333 13.638 Q 49.133 9.338 45.433 6.388 A 28.905 28.905 0 0 0 44.735 5.849 A 25.358 25.358 0 0 0 37.533 2.038 A 35.677 35.677 0 0 0 35.243 1.286 A 30.032 30.032 0 0 0 29.533 0.188 A 49.682 49.682 0 0 0 28.493 0.106 Q 26.728 -0.015 25.079 0.002 A 35.53 35.53 0 0 0 22.283 0.138 Q 18.933 0.438 16.283 1.288 A 28.948 28.948 0 0 0 14.913 1.765 Q 14.082 2.078 13.381 2.41 A 13.209 13.209 0 0 0 12.033 3.138 Q 11.233 3.738 11.233 3.838 A 0.88 0.88 0 0 0 11.236 3.843 Q 11.334 4.038 11.433 3.988 A 0.407 0.407 0 0 1 11.463 3.975 Q 11.611 3.916 12.233 3.738 Q 16.133 2.738 20.333 2.388 A 37.087 37.087 0 0 1 23.415 2.26 A 35.994 35.994 0 0 1 28.633 2.638 Q 32.733 3.238 36.633 4.838 Q 40.533 6.438 43.833 9.238 Q 46.633 11.538 48.083 14.738 Q 49.533 17.938 49.783 21.338 Q 50.033 24.738 49.133 28.038 A 20.5 20.5 0 0 1 48.627 29.638 A 17.163 17.163 0 0 1 46.433 33.838 Q 42.633 39.138 37.633 42.338 Q 32.633 45.538 27.233 47.538 A 15.238 15.238 0 0 1 26.801 47.716 A 12.859 12.859 0 0 1 25.883 48.038 A 2.872 2.872 0 0 0 25.723 48.092 Q 25.31 48.247 25.404 48.402 A 0.199 0.199 0 0 0 25.433 48.438 A 0.146 0.146 0 0 0 25.426 48.455 Q 25.37 48.614 25.821 48.672 A 3.231 3.231 0 0 0 25.983 48.688 Q 26.633 48.738 27.433 48.538 A 26.179 26.179 0 0 0 28.801 48.304 Q 29.986 48.07 31.324 47.706 A 54.237 54.237 0 0 0 34.033 46.888 A 29.47 29.47 0 0 0 36.399 45.995 A 33.929 33.929 0 0 0 41.533 43.238 A 28.076 28.076 0 0 0 43.121 42.129 A 31.018 31.018 0 0 0 48.283 37.188 A 21.668 21.668 0 0 0 50.674 33.664 Z M 55.429 75.024 A 3.278 3.278 0 0 0 55.333 75.038 A 24.293 24.293 0 0 1 52.119 75.252 A 24.855 24.855 0 0 1 49.283 75.088 Q 46.233 74.738 43.433 73.938 A 38.527 38.527 0 0 1 42.653 73.707 A 34.354 34.354 0 0 1 38.183 71.988 A 29.375 29.375 0 0 1 36.423 71.091 A 23.86 23.86 0 0 1 33.833 69.438 Q 30.433 66.938 27.433 63.688 Q 24.433 60.438 21.333 57.538 A 51.62 51.62 0 0 0 20.36 56.651 A 45.875 45.875 0 0 0 14.933 52.488 Q 11.633 50.338 7.633 50.038 L 7.183 50.038 Q 7.033 50.038 6.973 50.075 A 0.072 0.072 0 0 0 6.933 50.138 A 0.138 0.138 0 0 0 6.949 50.194 Q 6.988 50.279 7.131 50.433 A 3.984 3.984 0 0 0 7.233 50.538 A 71.868 71.868 0 0 0 7.285 50.564 Q 7.669 50.756 8.018 50.924 A 43.699 43.699 0 0 0 8.683 51.238 A 15.713 15.713 0 0 1 9.178 51.478 A 18.79 18.79 0 0 1 10.033 51.938 Q 9.333 54.838 9.133 57.738 Q 8.933 60.638 8.733 63.438 L 8.733 64.388 Q 8.733 64.667 8.81 64.811 A 0.285 0.285 0 0 0 8.933 64.938 A 0.214 0.214 0 0 0 8.946 64.944 Q 9.14 65.026 9.333 64.638 Q 9.533 64.238 9.733 63.738 A 370.99 370.99 0 0 0 10.133 62.503 Q 10.741 60.612 11.403 58.49 A 648.589 648.589 0 0 0 12.833 53.838 A 36.355 36.355 0 0 1 13.835 54.606 A 41.151 41.151 0 0 1 17.333 57.738 Q 19.533 59.938 21.733 62.288 Q 23.933 64.638 26.283 66.988 Q 28.633 69.338 31.233 71.238 A 31.206 31.206 0 0 0 32.657 72.214 A 36.427 36.427 0 0 0 36.133 74.188 Q 38.833 75.538 41.933 76.288 A 22.673 22.673 0 0 0 41.976 76.299 Q 44.692 76.95 47.638 76.95 A 27.069 27.069 0 0 0 48.433 76.938 Q 51.833 76.838 55.433 75.538 Q 55.777 75.401 55.885 75.263 A 0.203 0.203 0 0 0 55.933 75.138 A 0.101 0.101 0 0 0 55.912 75.074 Q 55.829 74.969 55.429 75.024 Z M 6.726 7.645 A 15.369 15.369 0 0 0 2.033 12.038 Q 1.902 12.17 1.749 12.366 A 6.598 6.598 0 0 0 1.583 12.588 A 1.33 1.33 0 0 0 1.582 12.59 Q 1.376 12.879 1.478 12.997 A 0.175 0.175 0 0 0 1.533 13.038 Q 1.789 13.294 2.481 12.751 A 5.466 5.466 0 0 0 2.733 12.538 A 25.07 25.07 0 0 1 6.269 10.467 A 32.291 32.291 0 0 1 10.833 8.688 Q 15.533 7.238 20.483 6.988 A 37.629 37.629 0 0 1 22.382 6.94 A 36.636 36.636 0 0 1 30.233 7.788 A 28.85 28.85 0 0 1 31.491 8.093 A 24.919 24.919 0 0 1 38.833 11.338 A 12.545 12.545 0 0 1 40.195 12.425 A 15.557 15.557 0 0 1 41.833 14.188 Q 43.233 15.938 44.083 18.138 A 14.491 14.491 0 0 1 44.465 19.26 A 16.127 16.127 0 0 1 45.083 22.888 Q 45.123 23.56 45.097 24.234 A 14.87 14.87 0 0 1 44.433 28.038 Q 44.283 28.413 43.965 29.07 A 45.638 45.638 0 0 1 43.733 29.538 A 10.959 10.959 0 0 0 43.724 29.557 Q 43.235 30.539 43.433 30.638 Q 43.603 30.808 44.205 30.15 A 8.59 8.59 0 0 0 44.433 29.888 A 27.39 27.39 0 0 0 44.549 29.75 Q 45.071 29.122 45.307 28.756 A 2.372 2.372 0 0 0 45.433 28.538 A 16.014 16.014 0 0 0 45.441 28.524 A 16.715 16.715 0 0 0 46.983 24.638 A 15.628 15.628 0 0 0 47.488 20.662 A 16.831 16.831 0 0 0 47.483 20.288 Q 47.433 18.038 46.583 15.888 A 13.648 13.648 0 0 0 46.207 15.025 A 14.937 14.937 0 0 0 44.133 11.838 A 17.987 17.987 0 0 0 42.161 9.929 A 21.243 21.243 0 0 0 38.383 7.438 Q 34.933 5.638 30.933 4.738 Q 26.933 3.838 22.683 3.738 Q 18.433 3.638 14.533 4.538 A 30.083 30.083 0 0 0 14.29 4.596 A 27.016 27.016 0 0 0 7.333 7.288 A 18.038 18.038 0 0 0 6.726 7.645 Z M 17.233 47.738 L 21.133 46.038 A 290.189 290.189 0 0 1 22.357 45.471 Q 22.908 45.217 23.527 44.934 A 606.016 606.016 0 0 1 24.833 44.338 Q 27.033 43.338 29.033 42.438 A 72.03 72.03 0 0 1 30.463 41.813 Q 31.171 41.512 31.803 41.266 A 37.037 37.037 0 0 1 32.533 40.988 A 33.99 33.99 0 0 1 32.835 40.879 Q 33.933 40.489 34.107 40.526 A 0.052 0.052 0 0 1 34.133 40.538 Q 34.233 40.738 33.783 41.238 Q 33.441 41.619 32.925 42.057 A 15.074 15.074 0 0 1 32.583 42.338 A 35.248 35.248 0 0 1 31.576 43.116 A 29.845 29.845 0 0 1 31.133 43.438 Q 30.433 43.938 30.133 44.038 Q 28.233 45.138 26.583 46.088 Q 24.933 47.038 23.233 47.838 A 21.012 21.012 0 0 1 25.853 49.088 A 26.978 26.978 0 0 1 27.933 50.388 Q 30.333 52.038 32.533 53.938 Q 34.733 55.838 36.633 57.588 Q 38.533 59.338 39.833 60.438 Q 42.633 62.938 45.183 66.038 Q 47.417 68.754 49.536 70.549 A 23.293 23.293 0 0 0 50.133 71.038 Q 50.833 71.738 50.733 72.038 A 0.464 0.464 0 0 1 50.594 72.136 Q 50.47 72.191 50.319 72.161 A 0.696 0.696 0 0 1 50.233 72.138 Q 49.933 72.038 49.533 71.938 Q 46.833 71.038 44.483 69.438 Q 42.133 67.838 39.933 65.838 Q 37.733 63.838 35.683 61.638 Q 33.633 59.438 31.533 57.338 Q 30.133 55.938 28.483 54.238 Q 26.833 52.538 25.033 51.088 A 20.032 20.032 0 0 0 21.769 48.934 A 18.406 18.406 0 0 0 21.283 48.688 Q 19.333 47.738 17.233 47.738 Z M 7.433 66.638 Q 7.733 68.338 8.233 69.938 A 14.014 14.014 0 0 0 8.709 71.243 Q 8.978 71.874 9.288 72.401 A 8.082 8.082 0 0 0 9.433 72.638 Q 9.513 72.638 9.561 72.734 A 0.411 0.411 0 0 1 9.583 72.788 A 0.222 0.222 0 0 1 9.59 72.812 Q 9.617 72.938 9.433 72.938 Q 9.279 72.938 9.094 72.849 A 1.436 1.436 0 0 1 8.983 72.788 A 1.34 1.34 0 0 0 8.821 72.705 Q 8.735 72.668 8.656 72.652 A 0.606 0.606 0 0 0 8.533 72.638 A 6.869 6.869 0 0 1 7.184 71.565 A 5.896 5.896 0 0 1 6.483 70.688 A 4.807 4.807 0 0 1 6.083 69.906 Q 5.593 68.726 5.233 66.638 A 10.639 10.639 0 0 1 5.115 65.77 Q 5.033 64.928 5.033 63.838 Q 5.033 62.138 5.133 60.588 A 31.77 31.77 0 0 1 5.222 59.489 Q 5.276 58.95 5.345 58.479 A 15.928 15.928 0 0 1 5.433 57.938 A 4.838 4.838 0 0 1 5.514 57.568 Q 5.661 57.013 5.885 56.88 A 0.286 0.286 0 0 1 6.033 56.838 A 0.071 0.071 0 0 1 6.082 56.865 Q 6.162 56.947 6.267 57.283 A 5.244 5.244 0 0 1 6.283 57.338 Q 6.424 57.806 6.52 58.405 A 11.734 11.734 0 0 1 6.533 58.488 Q 6.633 59.138 6.683 59.738 Q 6.727 60.256 6.732 60.476 A 2.347 2.347 0 0 1 6.733 60.538 A 68.607 68.607 0 0 1 6.944 62.585 A 56.41 56.41 0 0 1 7.033 63.738 Q 7.133 65.238 7.433 66.638 Z M 51.233 72.938 Q 52.833 73.038 53.683 72.988 A 16.514 16.514 0 0 0 54.268 72.943 Q 54.924 72.88 55.807 72.756 A 55.124 55.124 0 0 0 55.933 72.738 Q 56.033 72.738 56.433 72.688 A 2.52 2.52 0 0 1 56.525 72.679 Q 56.804 72.654 56.907 72.718 A 0.146 0.146 0 0 1 56.933 72.738 Q 57.033 72.938 56.683 73.238 Q 56.333 73.538 56.133 73.638 Q 54.533 74.138 53.183 74.338 A 6.934 6.934 0 0 1 52.633 74.396 Q 51.346 74.482 49.233 74.238 A 11.054 11.054 0 0 1 48.315 74.095 Q 47.801 73.993 47.233 73.838 A 22.513 22.513 0 0 1 46.059 73.485 A 17.535 17.535 0 0 1 45.233 73.188 Q 44.645 72.96 44.228 72.731 A 4.258 4.258 0 0 1 43.833 72.488 A 1.745 1.745 0 0 1 43.719 72.402 Q 43.384 72.123 43.616 71.951 A 0.424 0.424 0 0 1 43.633 71.938 A 0.231 0.231 0 0 1 43.691 71.92 Q 43.955 71.867 44.883 72.088 A 397.872 397.872 0 0 1 45.354 72.201 Q 46.03 72.363 46.333 72.438 Q 47.733 72.738 48.933 72.838 A 28.686 28.686 0 0 0 50.677 72.932 A 25.039 25.039 0 0 0 51.233 72.938 Z" vector-effect="non-scaling-stroke"/></g></svg>